<?xml version="1.0" encoding="UTF-8" standalone="no"?>
<!DOCTYPE svg PUBLIC "-//W3C//DTD SVG 1.1//EN" "http://www.w3.org/Graphics/SVG/1.1/DTD/svg11.dtd">
<svg width="100%" height="100%" viewBox="0 0 2001 2001" version="1.1" xmlns="http://www.w3.org/2000/svg" xmlns:xlink="http://www.w3.org/1999/xlink" xml:space="preserve" xmlns:serif="http://www.serif.com/" style="fill-rule:evenodd;clip-rule:evenodd;stroke-linecap:round;stroke-linejoin:round;stroke-miterlimit:2;">
    <g id="surface1">
        <g>
            <path d="M544.779,561.667c-54.173,0 -99.353,40.607 -105.112,94.46l-122.17,1143.69c-3.183,29.77 6.47,59.622 26.484,81.914c20.025,22.25 48.673,35.044 78.618,35.044l1155.81,-0c29.934,-0 58.602,-12.794 78.617,-35.044c20.015,-22.292 29.667,-52.144 26.474,-81.914l-122.15,-1143.69c-5.779,-53.853 -50.948,-94.46 -105.111,-94.46l-911.463,0Zm1033.63,1405.35l-1155.81,-0c-44.181,-0 -86.457,-18.831 -115.99,-51.691c-29.533,-32.86 -43.779,-76.897 -39.082,-120.83l122.17,-1143.69c8.488,-79.483 75.156,-139.393 155.082,-139.393l911.463,-0c79.925,-0 146.593,59.91 155.061,139.393l122.17,1143.69c4.697,43.933 -9.549,87.97 -39.082,120.83c-29.533,32.86 -71.809,51.691 -115.979,51.691" style="fill-rule:nonzero;stroke:#000;stroke-width:55px;"/>
            <path d="M1300.18,829.905c-0.453,0 -0.876,-0.02 -1.319,-0.051c-13.844,-0.711 -24.496,-12.526 -23.785,-26.371c0.237,-4.852 23.023,-486.722 -141.556,-659.995c-37.877,-39.875 -81.625,-59.262 -133.728,-59.262c-52.112,0 -95.799,19.387 -133.573,59.231c-164.198,173.232 -140.392,655.102 -140.134,659.954c0.741,13.845 -9.889,25.68 -23.744,26.422c-13.814,0.762 -25.691,-9.889 -26.433,-23.733c-0.278,-5.151 -6.603,-127.475 8.458,-274.471c20.529,-200.385 69.439,-342.6 145.347,-422.691c47.127,-49.733 104.338,-74.95 170.079,-74.95c65.71,0 122.963,25.217 170.193,74.919c76.053,80.122 125.261,222.337 146.223,422.702c15.38,146.985 9.312,269.319 9.044,274.46c-0.679,13.422 -11.784,23.836 -25.072,23.836" style="fill-rule:nonzero;stroke:#000;stroke-width:55px;"/>
        </g>
    </g>
</svg>
