<?xml version="1.0" encoding="UTF-8" standalone="no"?>
<!DOCTYPE svg PUBLIC "-//W3C//DTD SVG 1.1//EN" "http://www.w3.org/Graphics/SVG/1.1/DTD/svg11.dtd">
<svg width="100%" height="100%" viewBox="0 0 9000 9000" version="1.1" xmlns="http://www.w3.org/2000/svg" xmlns:xlink="http://www.w3.org/1999/xlink" xml:space="preserve" xmlns:serif="http://www.serif.com/" style="fill-rule:evenodd;clip-rule:evenodd;stroke-linejoin:round;stroke-miterlimit:2;">
    <rect id="Krümmung-Voralge" serif:id="Krümmung Voralge" x="0" y="0" width="9000" height="9000" style="fill:none;"/>
    <g>
        <path d="M1626.03,2343.01c243.943,4.691 367.088,168.884 369.433,492.578c-4.691,323.694 -132.527,486.714 -383.507,489.059l-186.476,0l0,-981.637l200.55,-0Zm151.292,2016.05c-14.074,-58.64 -45.74,-90.306 -94.998,-94.997l-256.844,0l0,-833.864l288.51,-0c405.791,-0 660.289,-127.836 763.496,-383.507c30.493,-72.714 45.74,-153.638 45.74,-242.771c-0,-220.487 -98.516,-378.816 -295.547,-474.986c-112.589,-53.949 -246.289,-80.924 -401.1,-80.924l-1175.15,0l-0,94.998l281.473,-0l0,1921.05l-281.473,0l-0,94.997l1125.89,0Z" style="fill-rule:nonzero;"/>
        <path d="M3452.68,4267.59l-130.181,-0l0,-1421.44l-650.907,-0l0,91.479l204.068,-0l0,1147c0,103.207 -41.048,161.847 -123.144,175.921c-23.456,4.691 -50.431,7.037 -80.924,7.037l0,91.478l865.53,0c0,-53.949 -15.246,-83.269 -45.739,-87.96c-11.728,-2.346 -24.629,-3.518 -38.703,-3.518Zm-98.515,-1882.35c-0,-103.207 -45.74,-179.44 -137.218,-228.697c-39.876,-23.457 -82.097,-35.185 -126.663,-35.185c-100.862,0 -177.094,45.74 -228.697,137.219c-21.111,39.875 -31.666,82.096 -31.666,126.663c-0,103.206 45.739,178.266 137.218,225.178c39.875,21.111 80.924,31.666 123.145,31.666c103.206,-0 179.439,-43.394 228.697,-130.181c23.456,-39.876 35.184,-82.097 35.184,-126.663Z" style="fill-rule:nonzero;"/>
        <path d="M4146.4,4264.07l900.715,-1344.03l-0,-73.887l-1266.63,-0l-24.629,524.244l87.961,-0l119.626,-260.363c56.294,-110.244 133.699,-166.538 232.215,-168.884l418.691,0l-939.416,1340.52l-0,77.405l1354.59,0l7.037,-598.13l-91.478,-0l-73.887,277.955c-44.567,147.773 -139.564,222.833 -284.992,225.178l10.555,3.519l-450.357,-3.519Z" style="fill-rule:nonzero;"/>
        <path d="M5645.84,4264.07l900.715,-1344.03l-0,-73.887l-1266.63,-0l-24.629,524.244l87.961,-0l119.626,-260.363c56.294,-110.244 133.699,-166.538 232.215,-168.884l418.691,0l-939.416,1340.52l-0,77.405l1354.59,0l7.037,-598.13l-91.479,-0l-73.886,277.955c-44.567,147.773 -139.564,222.833 -284.992,225.178l10.555,3.519l-450.357,-3.519Z" style="fill-rule:nonzero;"/>
        <path d="M7996.73,4394.25c171.229,-0 277.954,-62.159 320.175,-186.476c14.074,-46.913 24.629,-106.726 31.666,-179.44l-91.479,-3.518c-14.073,161.847 -55.121,243.943 -123.144,246.289c-51.604,-4.691 -77.405,-63.331 -77.405,-175.921l-0,-735.348c-0,-293.202 -136.046,-473.814 -408.136,-541.836c-70.369,-16.42 -146.601,-24.629 -228.697,-24.629c-319.003,-0 -519.553,69.195 -601.649,207.586c-21.111,35.184 -31.666,72.714 -31.666,112.59c-0,91.478 43.394,148.946 130.181,172.402c21.111,7.037 43.394,10.555 66.85,10.555c100.861,0 168.884,-49.258 204.068,-147.773c4.691,-14.074 11.728,-37.53 21.111,-70.369c25.801,-93.824 58.64,-152.464 98.515,-175.92c25.802,-11.728 55.122,-17.592 87.961,-17.592c110.243,-0 177.093,66.849 200.549,200.549c9.383,49.258 14.074,107.898 14.074,175.921l-0,228.697c-602.822,11.728 -905.406,171.229 -907.751,478.504c-0,208.76 91.479,342.459 274.436,401.1c53.949,16.419 113.762,24.629 179.439,24.629c199.377,-0 345.978,-75.06 439.802,-225.179c18.765,-30.493 34.012,-62.159 45.74,-94.997c49.258,201.722 167.711,308.448 355.36,320.176Zm-657.944,-151.292c-117.28,-4.691 -177.094,-109.071 -179.439,-313.139c-0,-154.81 63.331,-255.672 189.994,-302.584c68.023,-21.11 154.811,-34.011 260.363,-38.702l-0,341.286c-44.567,164.193 -116.108,265.054 -214.623,302.584c-21.111,7.036 -39.876,10.555 -56.295,10.555Z" style="fill-rule:nonzero;"/>
        <path d="M2675.33,5301.92l-555.733,-0l-462.681,1111.47l-542.809,-1111.47l-462.68,-0l-0,69.79l206.784,-0l0,1411.3l-206.784,-0l-0,69.79l522.131,-0c-10.34,-43.081 -33.603,-66.344 -69.79,-69.79l-136.995,-0l0,-974.472l550.564,1070.11l46.526,-0l555.734,-1323.42l-0,1227.78l-206.785,-0l0,69.79l762.518,-0c-10.339,-43.081 -33.603,-66.344 -69.79,-69.79l-136.995,-0l0,-1411.3l206.785,-0l-0,-69.79Z" style="fill-rule:nonzero;"/>
        <path d="M3358.16,6785.6l-95.638,-0l0,-1044.26l-478.189,-0l-0,67.205l149.919,-0l-0,842.647c-0,75.821 -30.156,118.901 -90.469,129.24c-17.232,3.446 -37.048,5.17 -59.45,5.17l-0,67.205l635.862,-0c0,-39.634 -11.201,-61.174 -33.602,-64.621c-8.616,-1.723 -18.094,-2.584 -28.433,-2.584Zm-72.375,-1382.87c0,-75.821 -33.602,-131.825 -100.807,-168.012c-29.295,-17.232 -60.312,-25.848 -93.053,-25.848c-74.098,-0 -130.102,33.602 -168.013,100.807c-15.508,29.295 -23.263,60.313 -23.263,93.053c0,75.821 33.603,130.964 100.808,165.428c29.294,15.509 59.45,23.263 90.468,23.263c75.821,0 131.825,-31.879 168.012,-95.638c17.232,-29.294 25.848,-60.312 25.848,-93.053Z" style="fill-rule:nonzero;"/>
        <path d="M4188.31,6785.6l-129.241,-0l0,-1612.92l-529.885,-0l0,67.205l201.615,-0l0,1406.13c0,70.651 -28.433,113.732 -85.298,129.24c-29.295,6.893 -68.067,10.34 -116.317,10.34l0,67.205l721.161,-0c0,-39.634 -11.201,-61.174 -33.602,-64.621c-8.616,-1.723 -18.094,-2.584 -28.433,-2.584Z" style="fill-rule:nonzero;"/>
        <path d="M5318.31,6878.65c125.794,-0 204.2,-45.665 235.218,-136.995c10.339,-34.464 18.093,-78.406 23.263,-131.825l-67.205,-2.585c-10.339,118.901 -40.495,179.213 -90.468,180.936c-37.911,-3.446 -56.866,-46.526 -56.866,-129.24l-0,-540.224c-0,-215.401 -99.946,-348.088 -299.838,-398.06c-51.696,-12.063 -107.7,-18.094 -168.012,-18.094c-234.356,-0 -381.69,50.834 -442.002,152.503c-15.509,25.849 -23.263,53.42 -23.263,82.714c-0,67.205 31.879,109.424 95.638,126.656c15.509,5.169 31.879,7.754 49.111,7.754c74.098,0 124.071,-36.187 149.919,-108.562c3.446,-10.339 8.616,-27.571 15.509,-51.696c18.955,-68.928 43.08,-112.008 72.374,-129.24c18.955,-8.616 40.496,-12.924 64.62,-12.924c80.991,-0 130.102,49.111 147.334,147.334c6.893,36.187 10.34,79.267 10.34,129.24l-0,168.012c-442.864,8.616 -665.157,125.794 -666.88,351.534c-0,153.365 67.205,251.588 201.614,294.668c39.634,12.062 83.576,18.094 131.826,18.094c146.472,-0 254.172,-55.143 323.1,-165.428c13.786,-22.402 24.987,-45.665 33.603,-69.79c36.187,148.196 123.209,226.602 261.065,235.218Zm-483.359,-111.147c-86.16,-3.446 -130.101,-80.129 -131.825,-230.048c0,-113.731 46.527,-187.829 139.58,-222.293c49.973,-15.509 113.731,-24.987 191.276,-28.433l-0,250.726c-32.741,120.624 -85.299,194.722 -157.674,222.294c-15.508,5.169 -29.294,7.754 -41.357,7.754Z" style="fill-rule:nonzero;"/>
        <path d="M6202.75,6785.6l-64.62,-0l2.585,-661.711c12.062,-136.133 62.035,-225.739 149.918,-268.82c24.125,-12.062 49.112,-18.093 74.96,-18.093c98.222,-0 155.95,57.727 173.182,173.182c3.446,22.401 5.169,45.665 5.169,69.79l0,571.242c0,72.374 -18.955,114.593 -56.865,126.655c-17.232,5.17 -37.911,7.755 -62.036,7.755l0,67.205l597.091,-0c-0,-39.634 -11.201,-61.174 -33.603,-64.621c-10.339,-1.723 -20.678,-2.584 -31.018,-2.584l-85.298,-0l-0,-661.711c-0,-213.677 -75.821,-347.225 -227.463,-400.645c-41.357,-13.785 -84.437,-20.678 -129.24,-20.678c-125.794,-0 -232.633,49.973 -320.516,149.919c-25.848,29.294 -46.527,59.45 -62.036,90.468l-12.924,-201.615l-460.095,-0l-0,67.205l149.919,-0l-0,842.647c-0,79.267 -37.049,123.209 -111.147,131.825c-12.063,1.723 -24.987,2.585 -38.772,2.585l-0,67.205l604.844,-0c0,-39.634 -11.2,-61.174 -33.602,-64.621c-8.616,-1.723 -18.094,-2.584 -28.433,-2.584Z" style="fill-rule:nonzero;"/>
        <path d="M7511.09,6291.9c0,-241.249 29.295,-395.476 87.883,-462.681c36.188,-39.633 87.022,-59.45 152.504,-59.45c110.285,-0 180.936,56.004 211.954,168.012c20.679,72.375 31.018,186.968 31.018,343.779c-0,251.588 -32.741,410.123 -98.223,475.605c-37.91,36.187 -87.022,54.281 -147.334,54.281c-106.838,-0 -175.767,-55.143 -206.784,-165.428c-20.679,-74.098 -31.018,-192.137 -31.018,-354.118Zm253.311,-589.336c-211.954,-0 -374.797,72.374 -488.528,217.124c-79.268,103.392 -118.901,224.016 -118.901,361.872c-0,194.722 67.205,348.949 201.615,462.681c106.838,89.606 234.355,134.41 382.551,134.41c203.338,-0 362.734,-73.237 478.189,-219.709c86.16,-110.285 129.24,-237.802 129.24,-382.551c0,-192.999 -68.066,-343.779 -204.199,-452.341c-105.116,-80.991 -231.771,-121.486 -379.967,-121.486Z" style="fill-rule:nonzero;"/>
    </g>
</svg>
